<svg width="8" height="6" viewBox="0 0 8 6" fill="none" xmlns="http://www.w3.org/2000/svg">
<path d="M7.76503 0.205009C7.90953 0.341618 7.99387 0.530023 7.99949 0.728798C8.00512 0.927573 7.93157 1.12045 7.79503 1.26501L3.54503 5.76501C3.47615 5.83781 3.39338 5.89607 3.3016 5.93634C3.20983 5.97661 3.11091 5.99808 3.0107 5.99948C2.91048 6.00088 2.81101 5.98218 2.71814 5.94448C2.62528 5.90678 2.54091 5.85086 2.47003 5.78001L0.22003 3.53001C0.0875496 3.38783 0.0154264 3.19979 0.0188546 3.00549C0.0222829 2.81119 0.100995 2.6258 0.238408 2.48839C0.375821 2.35097 0.561206 2.27226 0.755507 2.26883C0.949808 2.26541 1.13785 2.33753 1.28003 2.47001L2.98503 4.17401L6.70503 0.235009C6.84164 0.0905061 7.03004 0.00617039 7.22882 0.000544684C7.42759 -0.00508102 7.62047 0.0684638 7.76503 0.205009Z" fill="#F2F2F2"/>
</svg>
